<svg width="256" height="256" viewBox="0 0 256 256" fill="none" xmlns="http://www.w3.org/2000/svg">
  <defs>
    <linearGradient id="knowledgeStroke" x1="50" y1="42" x2="206" y2="214" gradientUnits="userSpaceOnUse">
      <stop stop-color="#1677FF"/>
      <stop offset="1" stop-color="#2563EB"/>
    </linearGradient>
    <linearGradient id="knowledgeAccent" x1="76" y1="66" x2="182" y2="192" gradientUnits="userSpaceOnUse">
      <stop stop-color="#20C7FF"/>
      <stop offset="1" stop-color="#1677FF"/>
    </linearGradient>
  </defs>
  <path d="M62 55C62 45.0589 70.0589 37 80 37H166L198 69V180C198 189.941 189.941 198 180 198H80C70.0589 198 62 189.941 62 180V55Z" stroke="url(#knowledgeStroke)" stroke-width="13" stroke-linejoin="round"/>
  <path d="M166 38V69H197" stroke="url(#knowledgeStroke)" stroke-width="13" stroke-linecap="round" stroke-linejoin="round"/>
  <path d="M92 91H151" stroke="url(#knowledgeAccent)" stroke-width="12" stroke-linecap="round"/>
  <path d="M92 119H162" stroke="url(#knowledgeStroke)" stroke-width="12" stroke-linecap="round"/>
  <path d="M92 147H132" stroke="url(#knowledgeStroke)" stroke-width="12" stroke-linecap="round"/>
  <circle cx="171" cy="164" r="35" fill="white" stroke="url(#knowledgeStroke)" stroke-width="13"/>
  <path d="M158 159C158 151.82 163.82 146 171 146C178.18 146 184 151.82 184 159C184 166.18 178.18 172 171 172V176" stroke="url(#knowledgeAccent)" stroke-width="11" stroke-linecap="round"/>
  <path d="M171 190H171.5" stroke="url(#knowledgeAccent)" stroke-width="13" stroke-linecap="round"/>
  <path d="M57 201L42 216" stroke="url(#knowledgeAccent)" stroke-width="11" stroke-linecap="round"/>
  <path d="M206 50L221 35" stroke="url(#knowledgeAccent)" stroke-width="11" stroke-linecap="round"/>
</svg>
