<svg xmlns="http://www.w3.org/2000/svg" width="40" height="40" viewBox="0 0 40 40" fill="none">
  <title>合同履约</title>
  <path d="M9 8H23a2 2 0 0 1 2 2v23.5a2 2 0 0 1-2 2H7.5a2 2 0 0 1-2-2v-22A3.5 3.5 0 0 1 9 8Z" fill="#EAF3FF" stroke="#B5D1FA" stroke-width="1.4"/>
  <path d="M11.5 4H24l6.5 6.5V31a2.5 2.5 0 0 1-2.5 2.5H11.5A2.5 2.5 0 0 1 9 31V6.5A2.5 2.5 0 0 1 11.5 4Z" fill="#fff" stroke="#2563EB" stroke-width="1.6" stroke-linejoin="round"/>
  <path d="M24 4v5a1.5 1.5 0 0 0 1.5 1.5h5" fill="#DFECFF" stroke="#2563EB" stroke-width="1.6" stroke-linejoin="round"/>
  <path d="M13.5 15h12M13.5 19h8" stroke="#6999EB" stroke-width="1.5" stroke-linecap="round"/>
  <path d="M12.5 28c1.3-3.9 3.9-6.1 3.3-3.1-.7 3.3.4 3.4 2.1 1.3 1.5-1.8 1.4.7 3.1.3" stroke="#2563EB" stroke-width="1.5" stroke-linecap="round" stroke-linejoin="round"/>
  <path d="M29.5 21.5c2 1.3 4.2 2.2 7 2.6v5.2c0 3.8-2.6 6.4-7 8.2-4.4-1.8-7-4.4-7-8.2v-5.2c2.8-.4 5-1.3 7-2.6Z" fill="#EFF7FF" stroke="#2563EB" stroke-width="1.6" stroke-linejoin="round"/>
  <path d="m26 29.4 2.3 2.3 4.7-5" stroke="#00A8D6" stroke-width="1.9" stroke-linecap="round" stroke-linejoin="round"/>
</svg>
