<svg xmlns="http://www.w3.org/2000/svg" width="40" height="40" viewBox="0 0 40 40" fill="none">
  <title>通知通报</title>
  <path d="M18 4.5h10l5.5 5.5v17a2 2 0 0 1-2 2H18a2 2 0 0 1-2-2V6.5a2 2 0 0 1 2-2Z" fill="#F4F8FF" stroke="#91B5EF" stroke-width="1.4" stroke-linejoin="round"/>
  <path d="M28 4.5v4A1.5 1.5 0 0 0 29.5 10h4M21 12.5h7M21 16.5h4" stroke="#91B5EF" stroke-width="1.4" stroke-linecap="round" stroke-linejoin="round"/>
  <path d="m10 26 2.8 9a2 2 0 0 0 3.8-1.1L14.5 26" fill="#DFECFF" stroke="#2563EB" stroke-width="1.6" stroke-linejoin="round"/>
  <path d="M13 18.5H7.5A3.5 3.5 0 0 0 4 22v1.5A3.5 3.5 0 0 0 7.5 27H13l12 5V13.5l-12 5Z" fill="#fff" stroke="#2563EB" stroke-width="1.6" stroke-linejoin="round"/>
  <path d="M13 18.5V27l12 5V13.5l-12 5Z" fill="#E5EFFF"/>
  <path d="M13 18.5V27M25 13.5V32M8 22.5h2" stroke="#2563EB" stroke-width="1.6" stroke-linecap="round"/>
  <path d="M30 19a6 6 0 0 1 0 8m4-11a10 10 0 0 1 0 14" stroke="#00A8D6" stroke-width="1.7" stroke-linecap="round"/>
</svg>
